<svg width="221" height="16" viewBox="0 0 221 16" fill="none" xmlns="http://www.w3.org/2000/svg">
<path d="M0.590284 0.667314H6.70986C8.02503 0.667314 9.11206 0.955846 9.97095 1.53291C10.8433 2.10998 11.2794 3.01583 11.2794 4.25048C11.2794 4.96175 11.0848 5.59921 10.6956 6.16285C10.3199 6.71308 9.80991 7.10226 9.16574 7.3304C10.0515 7.5317 10.7292 7.94773 11.1989 8.57847C11.682 9.20922 11.9236 10.001 11.9236 10.9538C11.9236 13.6513 10.1119 15 6.48843 15H0.590284V0.667314ZM2.44226 2.27773V6.80702H5.84426C6.23344 6.80702 6.56224 6.80031 6.83064 6.78689C7.11246 6.76005 7.42783 6.70637 7.77676 6.62585C8.12568 6.54533 8.40079 6.43125 8.60209 6.28363C8.81682 6.12259 8.99799 5.89445 9.14561 5.59921C9.30665 5.30396 9.38717 4.94833 9.38717 4.53231C9.38717 4.11628 9.32007 3.76736 9.18587 3.48554C9.05167 3.1903 8.89063 2.96886 8.70275 2.82124C8.51486 2.6602 8.25317 2.53942 7.91767 2.4589C7.59559 2.37838 7.30034 2.33141 7.03194 2.31799C6.77696 2.29115 6.44146 2.27773 6.02543 2.27773H2.44226ZM2.44226 8.29665V13.4097H6.22673C6.69644 13.4097 7.07891 13.403 7.37415 13.3896C7.6694 13.3627 7.99819 13.3024 8.36053 13.2084C8.7363 13.1145 9.03154 12.9803 9.24626 12.8058C9.46098 12.6179 9.64215 12.3562 9.78977 12.0207C9.9374 11.6718 10.0112 11.2558 10.0112 10.7727C10.0112 10.3701 9.95753 10.0211 9.85017 9.72589C9.75622 9.43065 9.58847 9.1958 9.34691 9.02134C9.11877 8.84688 8.89734 8.70596 8.68262 8.5986C8.48131 8.49124 8.18607 8.41743 7.79689 8.37717C7.4077 8.33691 7.10575 8.31678 6.89103 8.31678C6.67631 8.30336 6.34751 8.29665 5.90465 8.29665H2.44226ZM20.3897 0.667314L25.9859 15H23.8722L22.282 10.6116H16.263L14.6325 15H12.6195L18.2559 0.667314H20.3897ZM21.7183 9.10186L19.2826 2.47903L16.8066 9.10186H21.7183ZM37.3884 0.667314V2.23747L28.4506 13.3493H37.6098V15H26.1759V13.3896L35.0936 2.31799H26.8805V0.667314H37.3884ZM51.0835 0.667314V15H49.1913V8.29665H41.6223V15H39.7301V0.667314H41.6223V6.64598H49.1913V0.667314H51.0835ZM64.1818 0.667314V2.31799H56.1499V6.80702H63.6584V8.3973H56.1499V13.3493H64.2825V15H54.2577V0.667314H64.1818ZM66.4833 0.667314H68.5567L76.1256 12.3026V0.667314H77.9575V15H75.8237L68.295 3.50567V15H66.4833V0.667314ZM87.1304 0.325101C89.3044 0.325101 90.9954 1.00953 92.2032 2.37838C93.411 3.73381 94.0149 5.51198 94.0149 7.71288C94.0149 9.9272 93.4177 11.7523 92.2233 13.1883C91.0289 14.6242 89.338 15.3422 87.1505 15.3422C86.0366 15.3422 85.0368 15.1409 84.1511 14.7383C83.2654 14.3357 82.5407 13.7788 81.9771 13.0675C81.4268 12.3562 81.0041 11.5443 80.7089 10.6318C80.427 9.71918 80.2861 8.7328 80.2861 7.67262C80.2861 5.43146 80.9034 3.64658 82.1381 2.31799C83.3862 0.989396 85.0503 0.325101 87.1304 0.325101ZM87.1304 1.97578C85.5334 1.97578 84.3054 2.53942 83.4466 3.66671C82.6011 4.78058 82.1784 6.16285 82.1784 7.81353C82.1784 9.61182 82.6279 11.0478 83.5271 12.1214C84.4396 13.1816 85.6542 13.7117 87.1706 13.7117C88.6737 13.7117 89.8748 13.1749 90.7739 12.1013C91.6731 11.0276 92.1227 9.5984 92.1227 7.81353C92.1227 6.04207 91.6664 4.62625 90.7538 3.56606C89.8547 2.50587 88.6469 1.97578 87.1304 1.97578ZM94.755 0.667314H96.8485L100.975 13.148L105.142 0.667314H107.135L102.022 15H99.8479L94.755 0.667314ZM126.433 9.58498C126.272 11.3967 125.641 12.8125 124.541 13.8324C123.454 14.839 122.018 15.3422 120.233 15.3422C118.193 15.3422 116.576 14.6712 115.381 13.3292C114.187 11.9738 113.59 10.1486 113.59 7.85379C113.59 5.70657 114.187 3.92169 115.381 2.49916C116.589 1.06321 118.253 0.345231 120.374 0.345231C121.89 0.345231 123.225 0.754544 124.38 1.57317C125.534 2.3918 126.178 3.5258 126.312 4.97517H124.42C124.205 4.03576 123.735 3.30437 123.011 2.78098C122.286 2.24418 121.394 1.97578 120.333 1.97578C118.736 1.97578 117.529 2.53942 116.71 3.66671C115.905 4.794 115.502 6.18298 115.502 7.83366C115.502 9.65879 115.932 11.0947 116.79 12.1415C117.649 13.1883 118.824 13.7117 120.313 13.7117C121.534 13.7117 122.507 13.3627 123.232 12.6649C123.957 11.9536 124.393 10.927 124.541 9.58498H126.433ZM134.861 0.325101C137.035 0.325101 138.726 1.00953 139.934 2.37838C141.142 3.73381 141.745 5.51198 141.745 7.71288C141.745 9.9272 141.148 11.7523 139.954 13.1883C138.759 14.6242 137.069 15.3422 134.881 15.3422C133.767 15.3422 132.767 15.1409 131.882 14.7383C130.996 14.3357 130.271 13.7788 129.708 13.0675C129.157 12.3562 128.735 11.5443 128.439 10.6318C128.158 9.71918 128.017 8.7328 128.017 7.67262C128.017 5.43146 128.634 3.64658 129.869 2.31799C131.117 0.989396 132.781 0.325101 134.861 0.325101ZM134.861 1.97578C133.264 1.97578 132.036 2.53942 131.177 3.66671C130.332 4.78058 129.909 6.16285 129.909 7.81353C129.909 9.61182 130.358 11.0478 131.258 12.1214C132.17 13.1816 133.385 13.7117 134.901 13.7117C136.404 13.7117 137.605 13.1749 138.504 12.1013C139.404 11.0276 139.853 9.5984 139.853 7.81353C139.853 6.04207 139.397 4.62625 138.484 3.56606C137.585 2.50587 136.377 1.97578 134.861 1.97578ZM144.036 0.667314H146.109L153.678 12.3026V0.667314H155.51V15H153.376L145.847 3.50567V15H144.036V0.667314ZM170.782 9.58498C170.621 11.3967 169.99 12.8125 168.89 13.8324C167.803 14.839 166.367 15.3422 164.582 15.3422C162.542 15.3422 160.925 14.6712 159.731 13.3292C158.536 11.9738 157.939 10.1486 157.939 7.85379C157.939 5.70657 158.536 3.92169 159.731 2.49916C160.938 1.06321 162.603 0.345231 164.723 0.345231C166.239 0.345231 167.575 0.754544 168.729 1.57317C169.883 2.3918 170.527 3.5258 170.661 4.97517H168.769C168.554 4.03576 168.085 3.30437 167.36 2.78098C166.635 2.24418 165.743 1.97578 164.683 1.97578C163.086 1.97578 161.878 2.53942 161.059 3.66671C160.254 4.794 159.851 6.18298 159.851 7.83366C159.851 9.65879 160.281 11.0947 161.14 12.1415C161.999 13.1883 163.173 13.7117 164.663 13.7117C165.884 13.7117 166.857 13.3627 167.581 12.6649C168.306 11.9536 168.742 10.927 168.89 9.58498H170.782ZM173.171 0.667314H179.472C182.679 0.667314 184.283 1.9892 184.283 4.63296C184.283 5.46501 184.055 6.20311 183.599 6.84728C183.156 7.47802 182.565 7.90076 181.827 8.11548C182.31 8.22284 182.699 8.37717 182.995 8.57847C183.29 8.77978 183.505 9.0616 183.639 9.42394C183.773 9.78628 183.86 10.1084 183.901 10.3902C183.941 10.672 183.974 11.088 184.001 11.6383C184.001 11.6919 184.008 11.8261 184.021 12.0409C184.035 12.2422 184.041 12.3831 184.041 12.4636C184.041 12.5307 184.048 12.6582 184.062 12.8461C184.088 13.034 184.109 13.1749 184.122 13.2688C184.135 13.3627 184.156 13.4902 184.182 13.6513C184.209 13.8123 184.243 13.9465 184.283 14.0539C184.323 14.1478 184.37 14.2619 184.424 14.3961C184.478 14.5169 184.538 14.6309 184.605 14.7383C184.672 14.8322 184.746 14.9195 184.827 15H182.652C182.559 14.8658 182.478 14.698 182.411 14.4967C182.357 14.2954 182.317 14.0606 182.29 13.7922C182.263 13.5104 182.243 13.2889 182.23 13.1279C182.216 12.9534 182.203 12.7052 182.189 12.3831C182.176 12.061 182.169 11.8798 182.169 11.8396C182.102 10.6183 181.847 9.80641 181.404 9.40381C180.975 9.00121 180.116 8.79991 178.828 8.79991H175.063V15H173.171V0.667314ZM175.063 2.27773V7.29014H178.626C179.069 7.29014 179.438 7.27672 179.734 7.24988C180.042 7.22304 180.378 7.16265 180.74 7.06871C181.102 6.97477 181.391 6.84057 181.606 6.66611C181.834 6.49164 182.022 6.24337 182.169 5.92129C182.317 5.59921 182.391 5.21002 182.391 4.75374C182.391 3.78749 182.096 3.13662 181.505 2.80111C180.928 2.45219 180.136 2.27773 179.13 2.27773H175.063ZM196.876 0.667314V2.31799H188.844V6.80702H196.352V8.3973H188.844V13.3493H196.977V15H186.952V0.667314H196.876ZM209.202 0.667314V2.31799H204.391V15H202.499V2.31799H197.688V0.667314H209.202ZM220.741 0.667314V2.31799H212.709V6.80702H220.218V8.3973H212.709V13.3493H220.842V15H210.817V0.667314H220.741Z" fill="white"/>
</svg>
